<svg width="2373" height="1539" viewBox="0 0 2373 1539" fill="none" xmlns="http://www.w3.org/2000/svg">
<path d="M0 1027.5V492.5H173V1027.5H0Z" fill="#E94B27"/>
<path d="M715 228.5H542V1027.5H715V228.5Z" fill="#E94B27"/>
<path d="M0 1076.5H1017L1594.18 111.676C1612.06 81.7935 1644.21 63.4999 1679.04 63.4999H2041C2208 63.4999 2373 183.5 2373 385.5C2373 587.5 2202 699.5 2041 699.5H1873L2160.34 1118.56C2198.98 1174.91 2158.64 1251.5 2090.31 1251.5C2057.59 1251.5 2027.01 1235.28 2008.66 1208.19L1648.05 675.855C1608.46 617.419 1650.32 538.5 1720.9 538.5H2041C2041 538.5 2208 537.5 2208 380.5C2208 223.5 2041 240.5 2041 240.5H1719L1140.32 1209.12C1124.62 1235.4 1096.25 1251.5 1065.63 1251.5H0V1076.5Z" fill="#E94B27"/>
<path d="M443 63.4999H270V1027.5H443V63.4999Z" fill="#11284B"/>
<path d="M985 718.5H811V1027.5H985V718.5Z" fill="#11284B"/>
<path d="M1089.5 0H888.5L1696 1252.5H1900L1089.5 0Z" fill="#11284B"/>
<circle cx="87" cy="332.5" r="87" fill="#11284B"/>
<circle cx="898" cy="582.5" r="87" fill="#E94B27"/>
<path d="M32.2372 1380.36H13.5831V1504H32.2372V1380.36ZM67.505 1380.36H49.4545V1504H67.505V1380.36ZM101.339 1380.36H83.2885V1504H101.339V1380.36ZM117.123 1504H135.173V1411.27H117.123V1504ZM126.238 1396.97C132.456 1396.97 137.648 1392.14 137.648 1386.22C137.648 1380.3 132.456 1375.41 126.238 1375.41C119.96 1375.41 114.828 1380.3 114.828 1386.22C114.828 1392.14 119.96 1396.97 126.238 1396.97ZM169.007 1448.94C169.007 1434.15 178.062 1425.7 190.619 1425.7C202.874 1425.7 210.3 1433.73 210.3 1447.19V1504H228.35V1445.02C228.35 1422.08 215.733 1410.07 196.777 1410.07C182.831 1410.07 173.716 1416.52 169.43 1426.37H168.282V1411.27H150.956V1504H169.007V1448.94ZM283.117 1505.87C309.257 1505.87 326.341 1486.73 326.341 1458.06C326.341 1429.2 309.257 1410.07 283.117 1410.07C256.977 1410.07 239.893 1429.2 239.893 1458.06C239.893 1486.73 256.977 1505.87 283.117 1505.87ZM283.177 1490.72C266.093 1490.72 258.124 1475.81 258.124 1458C258.124 1440.25 266.093 1425.16 283.177 1425.16C300.141 1425.16 308.11 1440.25 308.11 1458C308.11 1475.81 300.141 1490.72 283.177 1490.72ZM337.99 1504H356.04V1411.27H337.99V1504ZM347.105 1396.97C353.324 1396.97 358.515 1392.14 358.515 1386.22C358.515 1380.3 353.324 1375.41 347.105 1375.41C340.827 1375.41 335.696 1380.3 335.696 1386.22C335.696 1392.14 340.827 1396.97 347.105 1396.97ZM441.309 1433.91C437.566 1419.48 426.277 1410.07 406.234 1410.07C385.286 1410.07 370.435 1421.11 370.435 1437.53C370.435 1450.69 378.404 1459.45 395.79 1463.31L411.486 1466.75C420.421 1468.74 424.586 1472.73 424.586 1478.52C424.586 1485.71 416.92 1491.32 405.087 1491.32C394.281 1491.32 387.339 1486.67 385.165 1477.56L367.719 1480.21C370.737 1496.63 384.381 1505.87 405.208 1505.87C427.605 1505.87 443.12 1493.98 443.12 1477.2C443.12 1464.1 434.789 1456.01 417.765 1452.08L403.035 1448.7C392.832 1446.29 388.425 1442.85 388.486 1436.57C388.425 1429.44 396.153 1424.37 406.415 1424.37C417.644 1424.37 422.836 1430.59 424.949 1436.81L441.309 1433.91ZM492.405 1504H570.644V1487.94H511.059V1450.09H565.875V1434.09H511.059V1396.42H569.92V1380.36H492.405V1504ZM599.135 1411.27H579.334L607.828 1457.64L578.972 1504H598.773L619.6 1469.35L640.488 1504H660.229L631.071 1457.64L659.988 1411.27H640.247L619.6 1447.37L599.135 1411.27ZM713.306 1411.27H694.289V1389.06H676.239V1411.27H662.656V1425.76H676.239V1480.52C676.179 1497.36 689.037 1505.51 703.284 1505.21C709.02 1505.15 712.883 1504.06 714.996 1503.28L711.736 1488.36C710.529 1488.61 708.295 1489.15 705.397 1489.15C699.542 1489.15 694.289 1487.22 694.289 1476.77V1425.76H713.306V1411.27ZM763.741 1505.87C783.965 1505.87 798.273 1495.91 802.378 1480.82L785.293 1477.74C782.033 1486.49 774.185 1490.96 763.922 1490.96C748.468 1490.96 738.084 1480.94 737.601 1463.07H803.525V1456.67C803.525 1423.17 783.482 1410.07 762.474 1410.07C736.635 1410.07 719.611 1429.75 719.611 1458.24C719.611 1487.04 736.394 1505.87 763.741 1505.87ZM737.662 1449.55C738.386 1436.39 747.925 1424.98 762.594 1424.98C776.6 1424.98 785.776 1435.36 785.836 1449.55H737.662ZM833.103 1448.94C833.103 1434.15 842.158 1425.7 854.715 1425.7C866.97 1425.7 874.395 1433.73 874.395 1447.19V1504H892.446V1445.02C892.446 1422.08 879.828 1410.07 860.873 1410.07C846.927 1410.07 837.811 1416.52 833.525 1426.37H832.378V1411.27H815.052V1504H833.103V1448.94ZM942.866 1505.81C959.77 1505.81 966.41 1495.49 969.67 1489.57H971.179V1504H988.807V1380.36H970.757V1426.3H969.67C966.41 1420.57 960.252 1410.07 942.987 1410.07C920.59 1410.07 904.109 1427.75 904.109 1457.82C904.109 1487.82 920.348 1505.81 942.866 1505.81ZM946.85 1490.42C930.732 1490.42 922.341 1476.23 922.341 1457.64C922.341 1439.22 930.551 1425.4 946.85 1425.4C962.607 1425.4 971.059 1438.26 971.059 1457.64C971.059 1477.14 962.426 1490.42 946.85 1490.42ZM1046.03 1505.87C1066.26 1505.87 1080.57 1495.91 1084.67 1480.82L1067.59 1477.74C1064.33 1486.49 1056.48 1490.96 1046.22 1490.96C1030.76 1490.96 1020.38 1480.94 1019.89 1463.07H1085.82V1456.67C1085.82 1423.17 1065.78 1410.07 1044.77 1410.07C1018.93 1410.07 1001.9 1429.75 1001.9 1458.24C1001.9 1487.04 1018.69 1505.87 1046.03 1505.87ZM1019.95 1449.55C1020.68 1436.39 1030.22 1424.98 1044.89 1424.98C1058.89 1424.98 1068.07 1435.36 1068.13 1449.55H1019.95ZM1132.06 1505.81C1148.96 1505.81 1155.6 1495.49 1158.86 1489.57H1160.37V1504H1178V1380.36H1159.95V1426.3H1158.86C1155.6 1420.57 1149.44 1410.07 1132.18 1410.07C1109.78 1410.07 1093.3 1427.75 1093.3 1457.82C1093.3 1487.82 1109.54 1505.81 1132.06 1505.81ZM1136.04 1490.42C1119.92 1490.42 1111.53 1476.23 1111.53 1457.64C1111.53 1439.22 1119.74 1425.4 1136.04 1425.4C1151.8 1425.4 1160.25 1438.26 1160.25 1457.64C1160.25 1477.14 1151.62 1490.42 1136.04 1490.42ZM1233.2 1504H1251.85V1457.21H1277.21C1277.63 1457.21 1277.99 1457.21 1278.42 1457.21L1303.53 1504H1324.78L1297.37 1453.95C1312.53 1448.34 1320.07 1435.72 1320.07 1419.12C1320.07 1396.36 1305.95 1380.36 1277.27 1380.36H1233.2V1504ZM1251.85 1441.16V1396.36H1275.28C1293.69 1396.36 1301.3 1405.12 1301.3 1419.12C1301.3 1433.07 1293.69 1441.16 1275.52 1441.16H1251.85ZM1371.62 1505.87C1391.85 1505.87 1406.16 1495.91 1410.26 1480.82L1393.18 1477.74C1389.92 1486.49 1382.07 1490.96 1371.81 1490.96C1356.35 1490.96 1345.97 1480.94 1345.48 1463.07H1411.41V1456.67C1411.41 1423.17 1391.36 1410.07 1370.36 1410.07C1344.52 1410.07 1327.49 1429.75 1327.49 1458.24C1327.49 1487.04 1344.28 1505.87 1371.62 1505.87ZM1345.54 1449.55C1346.27 1436.39 1355.81 1424.98 1370.48 1424.98C1384.48 1424.98 1393.66 1435.36 1393.72 1449.55H1345.54ZM1449.92 1506.05C1465.25 1506.05 1473.89 1498.26 1477.33 1491.32H1478.05V1504H1495.68V1442.42C1495.68 1415.44 1474.43 1410.07 1459.7 1410.07C1442.92 1410.07 1427.46 1416.83 1421.43 1433.73L1438.39 1437.59C1441.05 1431.01 1447.81 1424.67 1459.94 1424.67C1471.59 1424.67 1477.57 1430.77 1477.57 1441.28V1441.7C1477.57 1448.28 1470.81 1448.16 1454.15 1450.09C1436.58 1452.14 1418.59 1456.73 1418.59 1477.8C1418.59 1496.03 1432.29 1506.05 1449.92 1506.05ZM1453.84 1491.56C1443.64 1491.56 1436.28 1486.98 1436.28 1478.04C1436.28 1468.38 1444.85 1464.94 1455.29 1463.55C1461.15 1462.77 1475.03 1461.2 1477.63 1458.6V1470.56C1477.63 1481.54 1468.88 1491.56 1453.84 1491.56ZM1529.27 1380.36H1511.22V1504H1529.27V1380.36ZM1545.06 1504H1563.11V1411.27H1545.06V1504ZM1554.17 1396.97C1560.39 1396.97 1565.58 1392.14 1565.58 1386.22C1565.58 1380.3 1560.39 1375.41 1554.17 1375.41C1547.89 1375.41 1542.76 1380.3 1542.76 1386.22C1542.76 1392.14 1547.89 1396.97 1554.17 1396.97ZM1622.17 1411.27H1603.16V1389.06H1585.11V1411.27H1571.53V1425.76H1585.11V1480.52C1585.05 1497.36 1597.91 1505.51 1612.15 1505.21C1617.89 1505.15 1621.75 1504.06 1623.87 1503.28L1620.61 1488.36C1619.4 1488.61 1617.16 1489.15 1614.27 1489.15C1608.41 1489.15 1603.16 1487.22 1603.16 1476.77V1425.76H1622.17V1411.27ZM1645.05 1538.53C1659.96 1538.53 1669.44 1530.74 1674.75 1516.38L1713.09 1411.45L1693.59 1411.27L1670.11 1483.23H1669.14L1645.66 1411.27H1626.34L1660.26 1505.21L1658.03 1511.37C1653.44 1523.38 1646.98 1524.47 1637.08 1521.75L1632.74 1536.54C1634.91 1537.57 1639.62 1538.53 1645.05 1538.53ZM1753.44 1396.42H1791.95V1504H1810.55V1396.42H1849.12V1380.36H1753.44V1396.42ZM1886.84 1505.87C1907.06 1505.87 1921.37 1495.91 1925.47 1480.82L1908.39 1477.74C1905.13 1486.49 1897.28 1490.96 1887.02 1490.96C1871.56 1490.96 1861.18 1480.94 1860.7 1463.07H1926.62V1456.67C1926.62 1423.17 1906.58 1410.07 1885.57 1410.07C1859.73 1410.07 1842.71 1429.75 1842.71 1458.24C1842.71 1487.04 1859.49 1505.87 1886.84 1505.87ZM1860.76 1449.55C1861.48 1436.39 1871.02 1424.98 1885.69 1424.98C1899.7 1424.98 1908.87 1435.36 1908.93 1449.55H1860.76ZM2007.63 1433.91C2003.89 1419.48 1992.6 1410.07 1972.56 1410.07C1951.61 1410.07 1936.76 1421.11 1936.76 1437.53C1936.76 1450.69 1944.73 1459.45 1962.11 1463.31L1977.81 1466.75C1986.75 1468.74 1990.91 1472.73 1990.91 1478.52C1990.91 1485.71 1983.24 1491.32 1971.41 1491.32C1960.61 1491.32 1953.66 1486.67 1951.49 1477.56L1934.04 1480.21C1937.06 1496.63 1950.7 1505.87 1971.53 1505.87C1993.93 1505.87 2009.44 1493.98 2009.44 1477.2C2009.44 1464.1 2001.11 1456.01 1984.09 1452.08L1969.36 1448.7C1959.16 1446.29 1954.75 1442.85 1954.81 1436.57C1954.75 1429.44 1962.48 1424.37 1972.74 1424.37C1983.97 1424.37 1989.16 1430.59 1991.27 1436.81L2007.63 1433.91ZM2064.08 1411.27H2045.06V1389.06H2027.01V1411.27H2013.43V1425.76H2027.01V1480.52C2026.95 1497.36 2039.81 1505.51 2054.05 1505.21C2059.79 1505.15 2063.65 1504.06 2065.77 1503.28L2062.51 1488.36C2061.3 1488.61 2059.06 1489.15 2056.17 1489.15C2050.31 1489.15 2045.06 1487.22 2045.06 1476.77V1425.76H2064.08V1411.27ZM2078.98 1504H2096.61V1489.57H2098.12C2101.38 1495.49 2108.02 1505.81 2124.92 1505.81C2147.38 1505.81 2163.68 1487.82 2163.68 1457.82C2163.68 1427.75 2147.14 1410.07 2124.74 1410.07C2107.54 1410.07 2101.32 1420.57 2098.12 1426.3H2097.03V1380.36H2078.98V1504ZM2096.67 1457.64C2096.67 1438.26 2105.12 1425.4 2120.88 1425.4C2137.24 1425.4 2145.45 1439.22 2145.45 1457.64C2145.45 1476.23 2137 1490.42 2120.88 1490.42C2105.36 1490.42 2096.67 1477.14 2096.67 1457.64ZM2215.42 1505.87C2235.64 1505.87 2249.95 1495.91 2254.05 1480.82L2236.97 1477.74C2233.71 1486.49 2225.86 1490.96 2215.6 1490.96C2200.14 1490.96 2189.76 1480.94 2189.28 1463.07H2255.2V1456.67C2255.2 1423.17 2235.16 1410.07 2214.15 1410.07C2188.31 1410.07 2171.29 1429.75 2171.29 1458.24C2171.29 1487.04 2188.07 1505.87 2215.42 1505.87ZM2189.34 1449.55C2190.06 1436.39 2199.6 1424.98 2214.27 1424.98C2228.27 1424.98 2237.45 1435.36 2237.51 1449.55H2189.34ZM2301.44 1505.81C2318.34 1505.81 2324.98 1495.49 2328.24 1489.57H2329.75V1504H2347.38V1380.36H2329.33V1426.3H2328.24C2324.98 1420.57 2318.82 1410.07 2301.56 1410.07C2279.16 1410.07 2262.68 1427.75 2262.68 1457.82C2262.68 1487.82 2278.92 1505.81 2301.44 1505.81ZM2305.42 1490.42C2289.3 1490.42 2280.91 1476.23 2280.91 1457.64C2280.91 1439.22 2289.12 1425.4 2305.42 1425.4C2321.18 1425.4 2329.63 1438.26 2329.63 1457.64C2329.63 1477.14 2321 1490.42 2305.42 1490.42Z" fill="#11284B"/>
</svg>
